<svg id="Layer_1" data-name="Layer 1" xmlns="http://www.w3.org/2000/svg" viewBox="0 0 932.71 147.69"><defs><style>.cls-1{fill:#7ae7c3;}.cls-2{fill:#fefefe;}.cls-3{fill:#67887d;}.cls-4{fill:#bcb8aa;}.cls-5{fill:#fb468e;}.cls-6{fill:#b74c70;}.cls-7{fill:#8f566d;}.cls-8{fill:#fed329;}.cls-9{fill:#bea12c;}.cls-10{fill:#cfc6a1;}.cls-11{fill:#8f824d;}.cls-12{fill:#555243;}.cls-13{fill:#7be7c3;}.cls-14{fill:#bfa12c;}.cls-15{fill:#676046;}</style></defs><title>logo-long</title><g id="kUVaDl.tif"><path class="cls-1" d="M.48,496.8V351.36a1.24,1.24,0,0,1,1.14-.17c3.55,1.34,7.26,1,10.92,1H423.71c2.24,0,4.48-.06,6.72.1a21.06,21.06,0,0,1,6,2.75,7,7,0,0,1,3.18,7.67,8.53,8.53,0,0,1-5.67,6.56c-2.45,1-5.11,1.08-7.66,1.66a3.07,3.07,0,0,1-.8,0,35.22,35.22,0,0,0-20.15,3.82c-4.83,2.53-8.3,6.54-8.27,12.45,0,4.24,2.4,7.32,5.68,9.71a32.94,32.94,0,0,0,14.57,5.63c4.25.66,8.49,1.34,12.79.44,6.92.27,13.8-.78,20.71-.42,2.06.1,4.13,0,6.2.09,3.51.88,7.16,1.3,10.31,3.4a7.18,7.18,0,0,1,3.48,7.53,7.85,7.85,0,0,1-5.44,6.42,49.44,49.44,0,0,1-7.85,1.93c-6.57.21-13.13,0-19.69.15-9.17-1.43-18,.62-26.54,3.41-8.84,2.89-16,8.11-20,17-3,6.41-2.27,12.37,1.05,18.26,3.77,6.72,9.79,10.72,16.66,13.75,7.9,3.48,16.24,4.4,24.73,4.83,3.63.19,7.31.61,10.18,3.4,3.62,3.54,2.93,10.64-3.26,13.11a23.82,23.82,0,0,1-4.81,1.43c-1.71.46-3.45.16-5.17.25q-212.77,0-425.55,0C3.55,497.5,1.87,498,.48,496.8Z" transform="translate(-0.46 -350.82)"/><path class="cls-2" d="M430.89,353.36c-1.91,0-3.83-.1-5.75-.1q-203.37,0-406.75-.07c-6,0-12.23,1.51-17.91-1.83.1-.15-.24-.5.24-.49.64,0,1.28,0,1.92,0q464.06,0,928.11-.06c2.11,0,2.42.54,2.42,2.49q-.09,66.7,0,133.41c-.89.55-1.37,0-1.62-.72-.39-1.14-1.44-1.92-1.62-3.18a1.33,1.33,0,0,0-1.17-1.06c-2-.44-4-1.38-6-1.4-6.06-.06-12.13-.56-18.18.36a19.53,19.53,0,0,0-3,.91c-2.28.7-3.08,2.33-2.36,4.73a4.83,4.83,0,0,1,.38,2.79c-.5,3.28,1.41,4.94,4,6.23a18.73,18.73,0,0,0,2.44.9,58.89,58.89,0,0,0,20.17,0c2.85-.42,3.6-2.83,5.05-4.61.51-.63.69-1.77,1.93-1.09,0,2.24,0,4.48,0,6.72,0,.84-.15,1.12-1,1a6.86,6.86,0,0,0-1.2,0q-464.16,0-928.32-.07c-.62,0-2.22,1.19-2.16-.89a6.66,6.66,0,0,1,3.07-.23H431c71.36-1.1,142.72-.17,214.08-.48H867.81a35.78,35.78,0,0,0,3.59-.09c3,0,5.51-1.52,8.28-2.22a1.09,1.09,0,0,0,.6-.38c2-2.59,1.62-8.72-1-10.31a22.62,22.62,0,0,0-6.65-2.43c-7-1.73-14.18-.2-21.2-1.74-5.74-1.26-11.41-2.36-16.1-6.21-1.73-1.42-3.66-2.57-5.5-3.84a26.36,26.36,0,0,1-8.35-9.79c-1.6-3.05-1.14-6.17-1.46-9.3-.73-7.06,2.71-12,7.39-16.71,2.64-2.66,5.79-4.44,8.64-6.7,2.26-1.78,5.16-2.09,7.76-3.06a50.74,50.74,0,0,1,13.06-2.91,6.87,6.87,0,0,0,3.33-1.16,30.57,30.57,0,0,1,6.69-.28c7.11,0,14.22,0,21.33,0a15.52,15.52,0,0,0,9.64-3.06,5.65,5.65,0,0,0-.94-9.53,15.42,15.42,0,0,0-7.16-1.61q-17,0-34,0a40.37,40.37,0,0,1-18.83-4.66,22,22,0,0,1-8.26-8.15,3.45,3.45,0,0,1-.42-2.31,66.68,66.68,0,0,0-.12-7.07,4.88,4.88,0,0,1,2-4.8,59.05,59.05,0,0,1,10.87-7.4,10.17,10.17,0,0,1,5.52-1.3c5.15.38,10.18-.63,15.24-1.14,2.92-.3,5.38-2,7.5-4,1.36-1.27,1.15-4.16-.18-5.75-2.36-2.82-5.52-4-9.07-4.26-1.43-.12-2.88-.05-4.31-.05q-89.35,0-178.7,0c-3.1,0-6.21-.75-9.29.13-2.6-.13-5.2-.8-7.8,0a40.25,40.25,0,0,0-5-.14q-102.65,0-205.28,0c-3.09,0-6.2-.91-9.27.14A51.43,51.43,0,0,1,430.89,353.36Z" transform="translate(-0.46 -350.82)"/><path class="cls-3" d="M431.06,497.34c-1,.05-1.91.14-2.87.14q-212.31,0-424.62,0c-1,0-2.06-.12-3.09-.19v-.48l427.25,0c1.12,0,2.23.07,3.35.1C431.36,497.05,431.35,497.2,431.06,497.34Z" transform="translate(-0.46 -350.82)"/><path class="cls-4" d="M898.51,486.57c-1.34-1.69-.42-4.74,1.67-5.55a22,22,0,0,1,8.38-1.49c5.12.11,10.24,0,15.36.19,4.22.15,7.39,2,8.51,6.4.06.24.45.4.69.6v3.84c-1.18.54-1.58,1.93-2,2.79-1.54,3.61-4.66,4.11-7.76,4.25-5.65.25-11.32.08-17,.09a1.84,1.84,0,0,1-1.5-.61c.75-1,1.85-.82,2.87-.83,4.16-.06,8.32.06,12.47-.06,2.22-.06,4.47-.19,6.46-1.44,2.82-1.76,4.36-4.73,3.77-7.4a7.67,7.67,0,0,0-6.4-5.72,71.09,71.09,0,0,0-17.91-.17c-3.06.39-5.83,1.18-6.94,4.55C899.15,486.31,898.82,486.46,898.51,486.57Z" transform="translate(-0.46 -350.82)"/><path class="cls-5" d="M440.28,353.42c.79-.05,1.59-.14,2.38-.14H655.75c1.36,0,2.72.08,4.07.12,1.73.27,3.52.31,5.08,1.24a6.77,6.77,0,0,1,3.68,6.75,8.18,8.18,0,0,1-5.63,7.38,33.75,33.75,0,0,1-9.64,1.56c-9.82.51-19.55,1.52-28.72,5.44a30.77,30.77,0,0,0-16.41,15.66c-3,6.64-2.45,13.07,1.7,19.25,6.36,9.47,15.6,13.95,26.4,16.07,3.52.69,7.06,1.1,10.6,1.56a29.61,29.61,0,0,0,7.4-.34c6.7.22,13.4-.08,20.1.15a59.5,59.5,0,0,1,8.5,2.37,8,8,0,0,1,5.39,7.46c0,3-2.49,6.39-5.81,7.52a37.6,37.6,0,0,1-7.63,1.93c-10.35.22-20.7,0-31.05.15a33.72,33.72,0,0,0-20.39,3.39c-5.32,2.58-8.58,6.83-8.4,13.05.15,5.38,3.39,8.78,7.78,11.2,5.21,2.86,11,3.78,16.8,4.06a57.42,57.42,0,0,1,12.91,2.09,7,7,0,0,1,5.16,7c0,3.26-2.58,6.82-5.46,7.74a36.7,36.7,0,0,1-5.39,1c-.73,0-1.44,0-2.17,0H446.75c-.9,0-1.25-.32-.6-1.11a4.68,4.68,0,0,1,2.07-1.14c4.2-1.76,6.14-4.15,5.87-7.23-.25-2.89-2.85-5.2-7.25-5.9-5.11-.8-10.18-1.91-15.37-2.12a38.76,38.76,0,0,1-15.61-4,36.92,36.92,0,0,1-15-13c-5.49-8.43-4.37-19.27,2.26-27.15,7.43-8.84,17.05-13,28.37-14,2-.15,4,.09,5.9-.47l20.53-.06c4.31-.07,8.51-1.07,12.77-1.52a11.08,11.08,0,0,0,6.39-3c2.93-2.73,2-7.07-1.72-9.13-4.13-2.27-8.8-2-13.2-3-1.55-.36-3.17-.1-4.72-.44-9.27-.41-18.53.36-27.79.34-4.77-.36-9.53-.63-14-2.73a18.86,18.86,0,0,1-10.34-11.92c-1.3-4.21,1.62-11,5.71-14.16a21.3,21.3,0,0,1,13.4-5c.46,0,1,.14,1.35-.27l0,0c4.37,0,8.62-1.07,12.94-1.48a12.3,12.3,0,0,0,7.1-3,5.31,5.31,0,0,0-.27-8.46,13,13,0,0,0-3.29-1.91C441.38,354.85,440.26,354.72,440.28,353.42Z" transform="translate(-0.46 -350.82)"/><path class="cls-6" d="M437.36,420.93c-2.73.48-5.46.92-8.18,1.43-9.28,1.77-17.69,5.12-24.16,12.47-5.33,6.06-7.93,12.87-6.06,20.85,1.27,5.43,4.73,9.65,8.93,13.2,8.23,6.94,17.83,10.11,28.5,10.74,4.49.27,9.13,0,13.46,1.75,2.7,1.1,4.83,2.63,5.42,5.79a5.8,5.8,0,0,1-1.34,5c-2,2.54-5,3.58-7.94,4.59-3.24.62-6.51.22-9.77.21-.36,0-.24-.33-.31-.52a14.77,14.77,0,0,0,6.26-2.69c4.6-3.46,3.65-10-2-12.29A23.8,23.8,0,0,0,431.7,480c-10.34-.27-20.22-2.06-29.24-7.59-7-4.27-11.91-10.07-13.91-18A18.28,18.28,0,0,1,390.2,442c6.26-12.93,17.8-17.75,30.94-20A74,74,0,0,1,437.36,420.93Z" transform="translate(-0.46 -350.82)"/><path class="cls-6" d="M425.77,370c-2.85,1.18-6,1.42-8.81,2.78-5.23,2.49-9,6.14-10.67,11.74-.9,3,.17,5.86,1.65,8.4a19.32,19.32,0,0,0,10.82,8.5,88.48,88.48,0,0,0,10.86,2.62c-7.94.26-15.77-.07-23.13-3.57-4.64-2.2-8.53-5.32-10.14-10.3-1.44-4.44-.07-8.6,3-12,4.8-5.31,11.15-7.38,18-8C420.18,369.86,423,370.06,425.77,370Z" transform="translate(-0.46 -350.82)"/><path class="cls-6" d="M457.41,403.74c4.94-.19,9.89-.26,14.71,1a11.92,11.92,0,0,1,6.87,4.35c2,2.62.55,6.81-1.52,8.48-3.32,2.68-7.26,3.09-11.22,3.34-2.78.18-5.58,0-8.36,0,2.23-.54,4.56-.6,6.72-1.53,3.93-1.69,5.92-4.81,5.1-8.34-.67-2.89-2.89-4.34-5.41-5.49C462.1,404.5,459.68,404.43,457.41,403.74Z" transform="translate(-0.46 -350.82)"/><path class="cls-6" d="M440.28,353.42a14.18,14.18,0,0,1,7.33,4.14c2.37,2.71.93,7.26-1.35,9.12-3.53,2.88-7.74,3.08-11.93,3.34-2.86.17-5.74,0-8.61,0,2.44-.66,5-.41,7.43-1.5a10.77,10.77,0,0,0,5-4.22c1.52-2.5.49-6.23-2-8.26a22.44,22.44,0,0,0-5.23-2.72A77.27,77.27,0,0,1,440.28,353.42Z" transform="translate(-0.46 -350.82)"/><path class="cls-7" d="M435.91,496.43c3.34.76,6.72.23,10.08.31,1.76,0,3.52.06,5.28.06h192c.64,0,1.28,0,1.91.06.3.18.3.34,0,.49-.79,0-1.59.12-2.38.12H434.4c-1.11,0-2.23-.08-3.34-.12,0-.15,0-.31,0-.47C432.69,496.75,434.34,497,435.91,496.43Z" transform="translate(-0.46 -350.82)"/><path class="cls-8" d="M643.31,446.38l32-.06c3.84.06,7.53-1.1,11.3-1.56a11.78,11.78,0,0,0,6.2-2.93c2.8-2.42,2.48-6.15-.67-8.6a12.39,12.39,0,0,0-5.06-2.06,72.21,72.21,0,0,0-12.22-2l-21.12-.13a93.86,93.86,0,0,1-14.39-1.69c-9.76-2.21-17.67-7.33-23-15.8-5.11-8.06-4.9-18,1.66-26.34,6.07-7.74,13.9-12.66,23.86-14.09,6.3-.91,12.68-1,19-2,2.83-.44,5.61-1.17,8.43-1.67a8.53,8.53,0,0,0,4-2.14,5.21,5.21,0,0,0-.11-8.29,12.45,12.45,0,0,0-3.52-2c-.76-.3-1.81-.35-1.83-1.56,1.11-.05,2.23-.15,3.34-.15q94,0,188.1,0a15.24,15.24,0,0,1,11.37,5.11c1.69,1.76.49,6.25-1.42,7.81-4.87,4-10.93,4.58-16.47,4.27-8.33-.47-14.58,2.78-20.63,7.62-1.59,1.28-3.18,2.41-3.12,4.72a13.75,13.75,0,0,0,0,7.76c1.78,4.19,5,7,8.87,9.22a34.79,34.79,0,0,0,16.88,4.35c11.91.21,23.84.07,35.76,0a13.7,13.7,0,0,1,9.06,3c2.13,1.73,2.13,7.48,0,9.24a16.81,16.81,0,0,1-11.4,4.13c-8.48-.12-17,0-25.44,0-.87,0-1.75.12-2.62.19-3.5,1.4-7.28,1.07-10.91,1.89C838.23,425,829,429.9,822.7,439.51c-1.28,2-2.49,4.1-2.27,6.65-.24,2.67-.06,5.34-.1,8a20.85,20.85,0,0,0,7.52,13.38c4.64,3.88,9.44,7.65,15.35,9.45a52.87,52.87,0,0,0,14.94,2.72,121,121,0,0,1,15.23,1,12.48,12.48,0,0,1,7.5,4.32c2.54,2.77.91,8.57-2.63,9.87-2.23.82-4.35,2-6.81,2.08h-214c-1,0-1-.51-.52-1.18.67-.88,1.75-1.06,2.7-1.46a6.1,6.1,0,0,0,4.11-4.87c.5-3.54-1.07-5.86-4.79-6.82a95,95,0,0,0-18.12-2.94c-6.86-.4-12.54-2.84-16.95-8.39-3.19-4-3-13,.48-16.78,4.58-5.08,10-8,16.92-8C641.92,446.63,642.66,446.84,643.31,446.38Z" transform="translate(-0.46 -350.82)"/><path class="cls-9" d="M667.77,353.43a13.89,13.89,0,0,1,5.86,2.5,6.47,6.47,0,0,1,0,10.57c-3.11,2.42-6.8,2.67-10.39,3-5.71.56-11.45.7-17.14,1.51-11.69,1.67-21.7,6.46-28.42,16.48-5.17,7.72-5.44,17.52,1.4,26.08,6.55,8.2,15.43,12.3,25.54,14.07,3,.53,6.12.94,9.18,1.4-10.8.12-21.38-1-31.28-5.73A31.65,31.65,0,0,1,607,407.91c-3.5-7.65-1.93-15.15,3.07-21.9,6.85-9.23,16.52-13.29,27.49-15,6.72-1,13.53-1,20.27-1.88,3-.39,6-1.08,7.94-3.41,2.93-3.5,3-8.61-3.42-11.43-.8-.35-1.65-.6-2.47-.9A46.79,46.79,0,0,1,667.77,353.43Z" transform="translate(-0.46 -350.82)"/><path class="cls-8" d="M898.51,486.57c-.11-3.2,1.8-4.74,4.57-5.57a6.86,6.86,0,0,1,1.16-.31,70.19,70.19,0,0,1,20.77.07,7.83,7.83,0,0,1,6.28,10.53c-1.83,4.17-5.31,5.78-9.56,5.86-5.59.1-11.19,0-16.79-.07-2.12-.39-3.62-1.89-5.3-3a3.11,3.11,0,0,1-1.09-2.75C898.55,489.73,898.53,488.15,898.51,486.57Z" transform="translate(-0.46 -350.82)"/><path class="cls-10" d="M820.16,445.94c-.32-4.77,3-7.75,5.51-11.13,4.55-6.11,11.06-9,18.09-11.16a81.92,81.92,0,0,1,16.32-3c-.69,1.37-2.13,1.06-3.15,1.09-6.75.19-12.92,2.71-19,5.07a26.88,26.88,0,0,0-9.16,6.62,47.23,47.23,0,0,0-5.91,7.21c-1.23,1.89-2.3,3.87-2.1,6.32.18,2.15-.08,4.33.07,6.48.32,4.61,2.57,8.3,5.55,11.74,2.65,3.08,6.26,4.81,9.3,7.31,4.67,3.84,10.42,4.85,16.1,6.12,5,1.12,10.16.56,15.22,1,4.44.39,9.09.39,12.92,3.47a5.16,5.16,0,0,1,2.26,4.43c0,1.2,0,2.4,0,3.6-.08,2.12-1,3.73-3.14,4.25-2.29.55-4.32,2.07-6.81,1.87a.87.87,0,0,1-.47-.49c1.59-.49,3.21-.92,4.78-1.49,4.2-1.51,5.75-4.54,4.57-8.82a1.53,1.53,0,0,0-.42-.82c-2.48-1.68-4.55-4.09-7.76-4.48-4.35-.53-8.71-.93-13.1-1.06-10.36-.31-20.18-2.44-28.68-8.88-4.54-3.45-8.3-7.5-10.44-12.86a19.16,19.16,0,0,1-.7-3.74C820.25,451.72,819.92,448.83,820.16,445.94Z" transform="translate(-0.46 -350.82)"/><path class="cls-11" d="M871.74,496.76l.47.49c-1.11.08-2.23.21-3.34.21H648c-1,0-1.91-.09-2.87-.13,0-.16,0-.33,0-.49l2-.12c2-.27,3.9-.53,5.84-.83,1.31-.2,2.71-.45,3.7.86q31.05,0,62.1,0Z" transform="translate(-0.46 -350.82)"/><path class="cls-12" d="M829,390.52c-1.54-1.75-1.55-6,0-7.76A38.7,38.7,0,0,1,829,390.52Z" transform="translate(-0.46 -350.82)"/><path class="cls-13" d="M513.42,423.32c-4.38-.1-8.76-.17-13.14-.29a11.19,11.19,0,0,1-7.84-3.48c-3.69-3.81-1.66-11.11,3.41-12.83a22.82,22.82,0,0,1,7.79-1c4.94.09,9.88.29,14.81.43,3.65.33,6.39,1.82,7.36,5.63a9.24,9.24,0,0,1-2.81,9.55c-1.66,1.6-3.76,1.53-5.79,1.78C516,423.26,514.67,422.91,513.42,423.32Z" transform="translate(-0.46 -350.82)"/><path class="cls-9" d="M656.68,496.76l-9.54,0c1.77-.68,3.72-.91,5.37-1.92,2.87-1.75,4.52-4.25,4.09-7.68-.36-2.87-2.63-4.22-5.06-5.11-4-1.48-8.24-1.81-12.47-2-5.77-.29-11.42-.86-16.63-3.74-5.76-3.19-9.53-8.06-8.55-14.77.81-5.56,4.35-9.15,9.14-11.65,6.38-3.33,13.3-3.59,20.28-3.46-3,.9-6.29,1-9.21,2.36-4.15,2-8,4.37-10.18,8.6A12.8,12.8,0,0,0,626.7,473a26.15,26.15,0,0,0,15.76,6.62c5.31.48,10.67.47,15.9,1.8,3.57.9,6.29,3,6.46,5.45.33,4.86-1.21,7.32-5.5,8.84C658.42,496,657.56,496.4,656.68,496.76Z" transform="translate(-0.46 -350.82)"/><path class="cls-6" d="M513.42,423.32c2.13-.66,4.5-.11,6.53-1.2,3.3-1.76,5.37-4.31,5.16-8.3-.2-3.84-2.51-5.94-5.82-7.26-.29-.12-.56-.27-.84-.41a49.31,49.31,0,0,1,10.92.8,8.3,8.3,0,0,1,6.71,8.35c-.35,4.09-4.55,7.91-8.8,8C522.66,423.44,518,423.33,513.42,423.32Z" transform="translate(-0.46 -350.82)"/><path class="cls-14" d="M674.89,429.2c5.37-.28,10.69-.1,15.79,1.91,4.22,1.66,6.49,5.88,4.7,9.3s-5,4.85-8.58,5.44a50.49,50.49,0,0,1-11.46.47c3-.57,6.07-1,8.71-2.94,4.22-3.09,4.29-7.95,0-11C681.31,430.39,678.05,429.93,674.89,429.2Z" transform="translate(-0.46 -350.82)"/><path class="cls-15" d="M820.16,445.94c.18,2.89.51,5.79-.17,8.66A30.28,30.28,0,0,1,820.16,445.94Z" transform="translate(-0.46 -350.82)"/></g></svg>